<svg width="48" height="48" viewBox="0 0 48 48" fill="none" xmlns="http://www.w3.org/2000/svg">
<path d="M23.5102 1.5H24.4898C30.0736 1.5 34.1106 1.50319 37.1885 1.917C40.2232 2.32501 42.1 3.10731 43.4963 4.50365C44.8927 5.89999 45.675 7.77679 46.083 10.8115C46.4968 13.8894 46.5 17.9264 46.5 23.5102V24.4898C46.5 30.0736 46.4968 34.1106 46.083 37.1885C45.675 40.2232 44.8927 42.1 43.4963 43.4964C42.1 44.8927 40.2232 45.675 37.1885 46.083C34.1106 46.4968 30.0736 46.5 24.4898 46.5H23.5102C17.9264 46.5 13.8894 46.4968 10.8115 46.083C7.77679 45.675 5.89999 44.8927 4.50365 43.4964C3.10731 42.1 2.32501 40.2232 1.917 37.1885C1.50319 34.1106 1.5 30.0736 1.5 24.4898V23.5102C1.5 17.9264 1.50319 13.8894 1.917 10.8115C2.32501 7.77679 3.10731 5.89999 4.50365 4.50365C5.89999 3.10731 7.77679 2.32501 10.8115 1.917C13.8894 1.50319 17.9264 1.5 23.5102 1.5Z" stroke="white" stroke-width="3"/>
<path d="M37.3878 13.0124C34.5354 12.889 31.7183 13.6885 29.3465 15.2945C26.9747 16.9005 25.1718 19.2292 24.2 21.942C23.2282 19.2292 21.4253 16.9005 19.0535 15.2945C16.6817 13.6885 13.8646 12.889 11.0122 13.0124C10.9164 15.3176 11.4034 17.6095 12.4272 19.6717C13.4511 21.734 14.978 23.4987 16.8639 24.7993C17.8314 25.4708 18.6221 26.3708 19.1674 27.4211C19.7126 28.4715 19.9959 29.6404 19.9927 30.8265V35H28.4081V30.8265C28.4047 29.6405 28.6879 28.4716 29.233 27.4212C29.7781 26.3709 30.5687 25.4708 31.5361 24.7993C33.4225 23.4992 34.9498 21.7346 35.9737 19.6722C36.9976 17.6098 37.4843 15.3177 37.3878 13.0124Z" fill="white"/>
<path d="M17.3422 30.8265C17.3461 30.0765 17.1686 29.3368 16.8251 28.672C16.4816 28.0071 15.9826 27.4371 15.3713 27.0116C14.5406 26.4388 13.7647 25.7888 13.0537 25.0701C12.2849 24.2917 11.5968 23.4361 11 22.5164V35H17.3422V30.8265Z" fill="white"/>
<path d="M31.0578 30.8265C31.0539 30.0765 31.2314 29.3368 31.5749 28.672C31.9184 28.0071 32.4174 27.4371 33.0287 27.0116C33.8594 26.4388 34.6353 25.7888 35.3463 25.0701C36.1151 24.2917 36.8032 23.4361 37.4 22.5164V35H31.0578V30.8265Z" fill="white"/>
</svg>
