<svg width="80" height="80" viewBox="0 0 80 80" fill="none" xmlns="http://www.w3.org/2000/svg">
<g clip-path="url(#clip0_11_207)">
<g clip-path="url(#clip1_11_207)">
<g clip-path="url(#clip2_11_207)">
<path d="M80 40C80 17.9086 62.0914 0 40 0C17.9086 0 0 17.9086 0 40C0 62.0914 17.9086 80 40 80C62.0914 80 80 62.0914 80 40Z" fill="white"/>
<path fill-rule="evenodd" clip-rule="evenodd" d="M5.73832 5.73832C0 11.4766 0 20.7123 0 39.1837V40.8163C0 59.2877 0 68.5233 5.73832 74.2617C11.4766 80 20.7123 80 39.1837 80H40.8163C59.2877 80 68.5233 80 74.2617 74.2617C80 68.5233 80 59.2877 80 40.8163V39.1837C80 20.7123 80 11.4766 74.2617 5.73832C68.5233 0 59.2877 0 40.8163 0H39.1837C20.7123 0 11.4766 0 5.73832 5.73832ZM63.9775 20.0225C58.7912 19.7983 53.6693 21.2518 49.3568 24.1718C45.0445 27.0918 41.7665 31.3258 39.9997 36.2582C38.2327 31.3258 34.9547 27.0918 30.6423 24.1718C26.3298 21.2518 21.208 19.7983 16.0217 20.0225C15.8476 24.2138 16.733 28.3808 18.5945 32.1303C20.4562 35.88 23.2323 39.0885 26.6612 41.4533C28.4203 42.6742 29.858 44.3105 30.8493 46.2202C31.8407 48.13 32.3558 50.2553 32.35 52.4118V60H47.6507V52.4118C47.6445 50.2553 48.1593 48.1302 49.1505 46.2203C50.1417 44.3107 51.579 42.6743 53.338 41.4533C56.7678 39.0895 59.5447 35.881 61.4063 32.1313C63.268 28.3815 64.1528 24.214 63.9775 20.0225ZM27.5308 52.4118C27.538 51.0482 27.2153 49.7033 26.5907 48.4945C25.9662 47.2855 25.0588 46.2492 23.9475 45.4757C22.437 44.4342 21.0263 43.2523 19.7335 41.9457C18.3358 40.5303 17.0847 38.9747 15.9996 37.3027V60H27.5308V52.4118ZM53.4085 48.4945C52.7838 49.7033 52.4612 51.0482 52.4683 52.4118V60H63.9995V37.3027C62.9145 38.9747 61.6633 40.5303 60.2657 41.9457C58.9728 43.2523 57.5622 44.4342 56.0518 45.4757C54.9403 46.2492 54.033 47.2855 53.4085 48.4945Z" fill="#E0095F"/>
</g>
</g>
</g>
<defs>
<clipPath id="clip0_11_207">
<rect width="80" height="80" fill="white"/>
</clipPath>
<clipPath id="clip1_11_207">
<rect width="80" height="80" fill="white"/>
</clipPath>
<clipPath id="clip2_11_207">
<rect width="80" height="80" fill="white"/>
</clipPath>
</defs>
</svg>

