<svg width="16" height="22" viewBox="0 0 16 22" fill="none" xmlns="http://www.w3.org/2000/svg">
<g clip-path="url(#clip0_50_25)">
<path d="M15 11C15 8.23858 12.7614 6 10 6C7.23858 6 5 8.23858 5 11C5 13.7614 7.23858 16 10 16C12.7614 16 15 13.7614 15 11Z" fill="white"/>
<path fill-rule="evenodd" clip-rule="evenodd" d="M5.71729 6.71729C5 7.43458 5 8.58904 5 10.898V11.102C5 13.411 5 14.5654 5.71729 15.2827C6.43458 16 7.58904 16 9.89796 16H10.102C12.411 16 13.5654 16 14.2827 15.2827C15 14.5654 15 13.411 15 11.102V10.898C15 8.58904 15 7.43458 14.2827 6.71729C13.5654 6 12.411 6 10.102 6H9.89796C7.58904 6 6.43458 6 5.71729 6.71729ZM12.9972 8.50281C12.3489 8.47479 11.7087 8.65648 11.1696 9.02148C10.6306 9.38648 10.2208 9.91573 9.99996 10.5323C9.77908 9.91573 9.36933 9.38648 8.83029 9.02148C8.29123 8.65648 7.651 8.47479 7.00272 8.50281C6.98095 9.02673 7.09162 9.5476 7.32431 10.0163C7.55702 10.485 7.90404 10.8861 8.33265 11.1817C8.55254 11.3343 8.73225 11.5388 8.85617 11.7775C8.98008 12.0162 9.04448 12.2819 9.04375 12.5515V13.5H10.9563V12.5515C10.9556 12.2819 11.0199 12.0163 11.1438 11.7775C11.2677 11.5388 11.4474 11.3343 11.6672 11.1817C12.096 10.8862 12.4431 10.4851 12.6758 10.0164C12.9085 9.54769 13.0191 9.02675 12.9972 8.50281ZM8.44135 12.5515C8.44225 12.381 8.40192 12.2129 8.32383 12.0618C8.24577 11.9107 8.13235 11.7811 7.99344 11.6845C7.80462 11.5543 7.62829 11.4065 7.46669 11.2432C7.29198 11.0663 7.13558 10.8718 6.99995 10.6628V13.5H8.44135V12.5515ZM11.6761 12.0618C11.598 12.2129 11.5576 12.381 11.5585 12.5515V13.5H12.9999V10.6628C12.8643 10.8718 12.7079 11.0663 12.5332 11.2432C12.3716 11.4065 12.1953 11.5543 12.0065 11.6845C11.8675 11.7811 11.7541 11.9107 11.6761 12.0618Z" fill="#E0095F"/>
</g>
<defs>
<clipPath id="clip0_50_25">
<rect width="10" height="10" fill="white" transform="translate(5 6)"/>
</clipPath>
</defs>
</svg>
